<svg xmlns="http://www.w3.org/2000/svg" viewBox="0 0 128 128" width="128" height="128" role="img" aria-label="02 sunny wind">
<title>02 sunny wind</title>
<defs>
  <linearGradient id="cloud" x1="0" y1="0" x2="0.28" y2="1" gradientUnits="objectBoundingBox"><stop stop-color="#DCE7F0"/><stop offset="0.5" stop-color="#B9CCDE"/><stop offset="1" stop-color="#829DB9"/></linearGradient>
  <linearGradient id="rear" x1="0" y1="0" x2="0.45" y2="1"><stop stop-color="#9BAFC7"/><stop offset="1" stop-color="#6B85A5"/></linearGradient>
  <linearGradient id="sun" x1="0.1" y1="0" x2="0.8" y2="1"><stop stop-color="#FFE994"/><stop offset="0.52" stop-color="#FFD56E"/><stop offset="1" stop-color="#FFB953"/></linearGradient>
  <linearGradient id="rain" x1="0" y1="0" x2="0.8" y2="1"><stop stop-color="#5CB6F1"/><stop offset="1" stop-color="#287DCB"/></linearGradient>
  <linearGradient id="wind" x1="0" y1="0" x2="1" y2="1"><stop stop-color="#7896B8"/><stop offset="1" stop-color="#536F96"/></linearGradient>
  <linearGradient id="moon" x1="0" y1="0" x2="0.7" y2="1"><stop stop-color="#D2DCFF"/><stop offset="0.54" stop-color="#A6B9F5"/><stop offset="1" stop-color="#7D92E2"/></linearGradient>
  <linearGradient id="status" x1="0" y1="0" x2="0.6" y2="1"><stop stop-color="#EBF0F7"/><stop offset="1" stop-color="#B6C5D7"/></linearGradient>
</defs>
<path d="M84.00 61.00 L93.00 61.00" fill="none" stroke="#FFC462" stroke-width="6" stroke-linecap="round" stroke-linejoin="round" data-part="sun-ray"/><path d="M73.75 85.75 L80.11 92.11" fill="none" stroke="#FFC462" stroke-width="6" stroke-linecap="round" stroke-linejoin="round" data-part="sun-ray"/><path d="M49.00 96.00 L49.00 105.00" fill="none" stroke="#FFC462" stroke-width="6" stroke-linecap="round" stroke-linejoin="round" data-part="sun-ray"/><path d="M24.25 85.75 L17.89 92.11" fill="none" stroke="#FFC462" stroke-width="6" stroke-linecap="round" stroke-linejoin="round" data-part="sun-ray"/><path d="M14.00 61.00 L5.00 61.00" fill="none" stroke="#FFC462" stroke-width="6" stroke-linecap="round" stroke-linejoin="round" data-part="sun-ray"/><path d="M24.25 36.25 L17.89 29.89" fill="none" stroke="#FFC462" stroke-width="6" stroke-linecap="round" stroke-linejoin="round" data-part="sun-ray"/><path d="M49.00 26.00 L49.00 17.00" fill="none" stroke="#FFC462" stroke-width="6" stroke-linecap="round" stroke-linejoin="round" data-part="sun-ray"/><path d="M73.75 36.25 L80.11 29.89" fill="none" stroke="#FFC462" stroke-width="6" stroke-linecap="round" stroke-linejoin="round" data-part="sun-ray"/><circle cx="49" cy="61" r="28" fill="url(#sun)" data-part="sun-disc"/><circle cx="39" cy="57" r="3.2" fill="#92552D" /><circle cx="59" cy="57" r="3.2" fill="#92552D" /><circle cx="49" cy="73" r="5.3" fill="#92552D" data-part="open-mouth"/><path d="M86 43 H108 C117 43 120 35 114 32 C110 30 106 32 105 36" fill="none" stroke="url(#wind)" stroke-width="4.7" stroke-linecap="round" stroke-linejoin="round" data-part="open-wind-curl"/><path d="M87 75 H110 C119 75 121 83 115 86 C111 88 107 85 107 81" fill="none" stroke="url(#wind)" stroke-width="4.7" stroke-linecap="round" stroke-linejoin="round" data-part="open-wind-curl"/><path d="M101 59 H120" fill="none" stroke="#6783A5" stroke-width="4.7" stroke-linecap="round" stroke-linejoin="round" data-part="straight-wind-line"/>
</svg>
