<svg xmlns="http://www.w3.org/2000/svg" viewBox="0 0 128 128" width="128" height="128" role="img" aria-label="05 cloudy">
<title>05 cloudy</title>
<defs>
  <linearGradient id="cloud" x1="0" y1="0" x2="0.28" y2="1" gradientUnits="objectBoundingBox"><stop stop-color="#F4F7FB"/><stop offset="0.5" stop-color="#DBE4EE"/><stop offset="1" stop-color="#A9BBD0"/></linearGradient>
  <linearGradient id="rear" x1="0" y1="0" x2="0.45" y2="1"><stop stop-color="#AFC0D4"/><stop offset="1" stop-color="#8299B6"/></linearGradient>
  <linearGradient id="sun" x1="0.1" y1="0" x2="0.8" y2="1"><stop stop-color="#FFE994"/><stop offset="0.52" stop-color="#FFD56E"/><stop offset="1" stop-color="#FFB953"/></linearGradient>
  <linearGradient id="rain" x1="0" y1="0" x2="0.8" y2="1"><stop stop-color="#82D0FF"/><stop offset="1" stop-color="#4096E5"/></linearGradient>
  <linearGradient id="wind" x1="0" y1="0" x2="1" y2="1"><stop stop-color="#93ACC9"/><stop offset="1" stop-color="#667F9E"/></linearGradient>
  <linearGradient id="moon" x1="0" y1="0" x2="0.7" y2="1"><stop stop-color="#D2DCFF"/><stop offset="0.54" stop-color="#A6B9F5"/><stop offset="1" stop-color="#7D92E2"/></linearGradient>
  <linearGradient id="status" x1="0" y1="0" x2="0.6" y2="1"><stop stop-color="#EBF0F7"/><stop offset="1" stop-color="#B6C5D7"/></linearGradient>
</defs>
<path d="M46 77 C37 77 31 70 32 61 C33 53 39 49 48 49 C52 37 62 30 74 33 C84 34 90 40 92 47 C102 47 110 54 110 62 C111 70 104 77 94 77 Z" fill="url(#rear)" data-part="rear-cloud"/><path d="M32 96 C20 96 14 88 15 77 C16 67 23 60 34 59 C38 43 51 34 67 36 C79 37 88 45 90 55 C102 55 111 64 111 76 C111 87 102 96 90 96 Z" fill="url(#cloud)" data-part="foreground-cloud"/><circle cx="50" cy="68" r="3.15" fill="#55677F" /><circle cx="74" cy="68" r="3.15" fill="#55677F" /><path d="M56 82 H68" fill="none" stroke="#55677F" stroke-width="4" stroke-linecap="round" stroke-linejoin="round" />
</svg>
