<svg xmlns="http://www.w3.org/2000/svg" viewBox="0 0 128 128" width="128" height="128" role="img" aria-label="09 heavy rain">
<title>09 heavy rain</title>
<defs>
  <linearGradient id="cloud" x1="0" y1="0" x2="0.28" y2="1" gradientUnits="objectBoundingBox"><stop stop-color="#DCE7F0"/><stop offset="0.5" stop-color="#B9CCDE"/><stop offset="1" stop-color="#829DB9"/></linearGradient>
  <linearGradient id="rear" x1="0" y1="0" x2="0.45" y2="1"><stop stop-color="#9BAFC7"/><stop offset="1" stop-color="#6B85A5"/></linearGradient>
  <linearGradient id="sun" x1="0.1" y1="0" x2="0.8" y2="1"><stop stop-color="#FFE994"/><stop offset="0.52" stop-color="#FFD56E"/><stop offset="1" stop-color="#FFB953"/></linearGradient>
  <linearGradient id="rain" x1="0" y1="0" x2="0.8" y2="1"><stop stop-color="#5CB6F1"/><stop offset="1" stop-color="#287DCB"/></linearGradient>
  <linearGradient id="wind" x1="0" y1="0" x2="1" y2="1"><stop stop-color="#7896B8"/><stop offset="1" stop-color="#536F96"/></linearGradient>
  <linearGradient id="moon" x1="0" y1="0" x2="0.7" y2="1"><stop stop-color="#D2DCFF"/><stop offset="0.54" stop-color="#A6B9F5"/><stop offset="1" stop-color="#7D92E2"/></linearGradient>
  <linearGradient id="status" x1="0" y1="0" x2="0.6" y2="1"><stop stop-color="#EBF0F7"/><stop offset="1" stop-color="#B6C5D7"/></linearGradient>
</defs>
<path d="M27 83 C17 83 12 77 13 69 C14 61 19 56 28 56 C32 42 43 36 55 39 C64 40 71 47 73 55 C82 53 90 61 90 69 C90 77 84 83 75 83 Z" fill="url(#cloud)" data-part="foreground-cloud"/><path d="M33 54 Q38 51 43 54" fill="none" stroke="#55677F" stroke-width="3.6" stroke-linecap="round" stroke-linejoin="round" /><path d="M57 54 Q62 51 67 54" fill="none" stroke="#55677F" stroke-width="3.6" stroke-linecap="round" stroke-linejoin="round" /><path d="M41 72 Q50 64 59 72" fill="none" stroke="#55677F" stroke-width="4" stroke-linecap="round" stroke-linejoin="round" /><path d="M70 56 C72 61 75 64 75 67 C75 73 67 73 67 67 C67 64 69 59 70 56Z" fill="url(#rain)" data-part="face-tear"/><path d="M30 88 L23 109" fill="none" stroke="url(#rain)" stroke-width="5.5" stroke-linecap="round" stroke-linejoin="round" data-part="rain-stroke"/><path d="M50 88 L43 109" fill="none" stroke="url(#rain)" stroke-width="5.5" stroke-linecap="round" stroke-linejoin="round" data-part="rain-stroke"/><path d="M70 88 L63 109" fill="none" stroke="url(#rain)" stroke-width="5.5" stroke-linecap="round" stroke-linejoin="round" data-part="rain-stroke"/><path d="M90 88 L83 109" fill="none" stroke="url(#rain)" stroke-width="5.5" stroke-linecap="round" stroke-linejoin="round" data-part="rain-stroke"/>
</svg>
